<svg width="15" height="29" viewBox="0 0 15 29" fill="none" xmlns="http://www.w3.org/2000/svg">
<path d="M1.28783 15.5273H4.32582V28.1629C4.32582 28.4124 4.5259 28.6145 4.77283 28.6145H9.92385C10.1708 28.6145 10.3709 28.4124 10.3709 28.1629V15.5868H13.8633C14.0904 15.5868 14.2814 15.4147 14.3073 15.1868L14.8378 10.535C14.8523 10.407 14.8122 10.2788 14.7275 10.1828C14.6426 10.0867 14.5212 10.0317 14.3938 10.0317H10.371V7.11574C10.371 6.23672 10.8395 5.79098 11.7636 5.79098C11.8953 5.79098 14.3938 5.79098 14.3938 5.79098C14.6407 5.79098 14.8408 5.58875 14.8408 5.33937V1.06946C14.8408 0.819986 14.6407 0.617844 14.3938 0.617844H10.769C10.7434 0.616579 10.6866 0.614502 10.603 0.614502C9.97401 0.614502 7.78785 0.739237 6.06095 2.34427C4.14755 4.1229 4.41353 6.25253 4.47709 6.62177V10.0316H1.28783C1.0409 10.0316 0.84082 10.2338 0.84082 10.4832V15.0756C0.84082 15.3251 1.0409 15.5273 1.28783 15.5273Z" fill="white"/>
</svg>
