<svg width="29" height="29" viewBox="0 0 29 29" fill="none" xmlns="http://www.w3.org/2000/svg">
<g clip-path="url(#clip0_419_1870)">
<path d="M20.7073 0.614502H8.97438C4.48952 0.614502 0.84082 4.2632 0.84082 8.74806V20.4809C0.84082 24.9658 4.48952 28.6145 8.97438 28.6145H20.7073C25.1921 28.6145 28.8408 24.9658 28.8408 20.481V8.74806C28.8408 4.2632 25.1921 0.614502 20.7073 0.614502ZM26.6533 20.4809C26.6533 23.7596 23.9859 26.427 20.7073 26.427H8.97438C5.6957 26.427 3.02832 23.7596 3.02832 20.481V8.74806C3.02832 5.46938 5.6957 2.802 8.97438 2.802H20.7073C23.9859 2.802 26.6533 5.46938 26.6533 8.74806V20.4809Z" fill="white"/>
<path d="M14.3408 6.6145C10.2053 6.6145 6.84082 9.97896 6.84082 14.1145C6.84082 18.25 10.2053 21.6145 14.3408 21.6145C18.4764 21.6145 21.8408 18.25 21.8408 14.1145C21.8408 9.97896 18.4764 6.6145 14.3408 6.6145ZM14.3408 19.4406C11.404 19.4406 9.01473 17.0513 9.01473 14.1145C9.01473 11.1777 11.404 8.78841 14.3408 8.78841C17.2776 8.78841 19.6669 11.1777 19.6669 14.1145C19.6669 17.0513 17.2776 19.4406 14.3408 19.4406Z" fill="white"/>
<path d="M22.8408 7.6145C23.3931 7.6145 23.8408 7.16679 23.8408 6.6145C23.8408 6.06222 23.3931 5.6145 22.8408 5.6145C22.2885 5.6145 21.8408 6.06222 21.8408 6.6145C21.8408 7.16679 22.2885 7.6145 22.8408 7.6145Z" fill="white"/>
</g>
<defs>
<clipPath id="clip0_419_1870">
<rect width="28" height="28" fill="white" transform="translate(0.84082 0.614502)"/>
</clipPath>
</defs>
</svg>
