<svg width="50" height="50" viewBox="0 0 50 50" fill="none" xmlns="http://www.w3.org/2000/svg">
<path d="M25 1C11.7466 1 1 11.6274 1 24.7418C1 29.6512 2.50772 34.2155 5.09083 38C6.07175 36.1203 7.92461 34.7546 10.119 34.4348C8.25886 31.653 7.1762 28.3214 7.1762 24.7418C7.1762 15.0165 15.1726 7.10976 25 7.10976C34.8274 7.10976 42.8238 15.0165 42.8238 24.7418C42.8238 28.307 41.752 31.6243 39.9028 34.3988C42.119 34.6288 44.0191 35.9227 45.0727 37.752C47.5577 34.0179 49 29.547 49 24.7418C49 11.6274 38.2534 1 25 1Z" fill="#16ACE0"/>
<path d="M32.3828 41.3061C32.3828 41.2053 32.3865 41.1008 32.3902 41C30.1075 42.0602 27.5712 42.6538 24.9026 42.6538C22.234 42.6538 19.9256 42.1125 17.7238 41.1381C17.7274 41.1941 17.7274 41.2501 17.7274 41.3061C17.7274 43.5721 16.6578 45.5917 15 46.8647C18.0252 48.2385 21.3775 49 24.9026 49C28.4277 49 31.9234 48.2049 35 46.7751C33.4047 45.4984 32.3828 43.5236 32.3828 41.3061Z" fill="#16ACE0"/>
<path d="M39.5 37C39.1522 37 38.8151 37.039 38.4921 37.1171C37.0406 37.4472 35.8553 38.4834 35.3194 39.8427C35.1136 40.3537 35 40.9144 35 41.5C35 43.2886 36.0469 44.836 37.5623 45.5635C38.1514 45.8438 38.808 46 39.5 46C41.9807 46 44 43.9807 44 41.5C44 41.0493 43.9326 40.6128 43.8084 40.2011C43.2512 38.3521 41.53 37 39.5 37Z" fill="#1B3954"/>
<path d="M24 16H15V24H24V16Z" fill="#1B3954"/>
<path d="M35 16H26V24H35V16Z" fill="#1B3954"/>
<path d="M24 26H15V34H24V26Z" fill="#1B3954"/>
<path d="M35 26H26V34H35V26Z" fill="#1B3954"/>
<path d="M15.7729 40.0911C15.2476 38.4976 13.8529 37.2946 12.153 37.0497C11.9401 37.0177 11.72 37 11.5 37C9.37421 37 7.58912 38.4799 7.12066 40.4673C7.04259 40.7973 7 41.1451 7 41.5C7 43.9807 9.01932 46 11.5 46C12.1282 46 12.7244 45.8722 13.2673 45.638C14.8715 44.9495 16 43.3525 16 41.5C16 41.0103 15.9219 40.5347 15.7729 40.0911Z" fill="#1B3954"/>
</svg>
