<svg width="54" height="50" viewBox="0 0 54 50" fill="none" xmlns="http://www.w3.org/2000/svg">
<g clip-path="url(#clip0_436_1937)">
<path d="M26.9998 0C19.4195 0 12.5886 3.19149 7.76904 8.3039C8.9104 8.38574 9.90101 8.84228 10.6504 9.63046C12.3388 9.31605 14.0573 10.0267 15.0436 11.5428C18.3169 8.90258 22.4732 7.32191 26.9998 7.32191C37.5304 7.32191 46.0928 15.8842 46.0928 26.4149C46.0928 27.8319 45.9377 29.2144 45.6405 30.541C46.6914 32.4145 47.738 34.2967 48.7588 36.1358L50.2533 38.8233C50.2533 38.8233 50.2792 38.8707 50.2878 38.8922C52.2819 35.1753 53.4147 30.9286 53.4147 26.4149C53.4147 11.827 41.5876 0 26.9998 0ZM7.90687 26.4149C7.90687 25.3941 7.9887 24.3906 8.14375 23.4129C6.95071 21.2981 5.7749 19.1748 4.62924 17.1031L3.52664 15.109C3.44912 14.9711 3.38021 14.8333 3.32422 14.6912C1.57126 18.2229 0.584961 22.2069 0.584961 26.4149C0.584961 33.2931 3.21654 39.5641 7.52785 44.2674C7.91117 44.108 8.32895 44.0176 8.76827 44.009C9.31526 44.0003 9.87517 43.9874 10.4523 44.0003C10.7883 43.5266 11.1328 43.0614 11.4731 42.592C11.8047 42.1354 12.1407 41.6789 12.468 41.218C12.8082 40.7356 13.2002 40.3437 13.6395 40.0379C10.1034 36.5751 7.90687 31.7469 7.90687 26.4149Z" fill="#1B3954"/>
<path d="M48.8622 40.5462C48.8234 40.4601 48.789 40.3739 48.7545 40.2835C48.6727 40.0854 48.5909 39.8786 48.4832 39.6848L46.993 37.0015C45.4941 34.301 43.9436 31.5101 42.3931 28.7795C40.7952 25.9541 38.3187 24.4208 35.0367 24.2227C34.8774 24.214 34.7266 24.2054 34.6749 24.1494C34.6405 24.1107 34.6276 24.0245 34.6362 23.9082C34.662 23.6369 34.5414 23.3483 34.438 23.1287C33.96 22.1338 33.1373 21.6169 32.0563 21.6428C31.8538 21.6514 31.7763 21.6169 31.7505 21.5911C31.7246 21.5652 31.7031 21.492 31.7246 21.3025C31.7505 21.1044 31.7419 20.902 31.7376 20.7081C31.7376 20.6263 31.7332 20.5445 31.7332 20.4626C31.7332 18.8734 30.6608 17.8009 29.0715 17.7966C28.1584 17.7966 27.241 17.7966 26.328 17.7966C25.1177 17.7966 23.9074 17.7966 22.7015 17.7966H22.6842C21.1165 17.7966 19.8675 18.4685 18.9802 19.7908L17.9853 21.281C17.6321 21.8107 17.2789 22.3362 16.9258 22.866C16.7793 23.0899 16.5511 23.4259 16.4692 23.4259C16.3831 23.4259 16.1376 23.0942 15.9567 22.8487C15.8749 22.7367 15.8361 22.6635 15.8447 22.6291C15.8447 22.6118 15.8706 22.5602 16.0213 22.4697C17.2919 21.6858 17.6666 20.2817 16.943 18.981C15.5518 16.4571 14.4708 14.5147 13.4328 12.6799C12.7049 11.3921 11.2793 10.97 9.96135 11.6591C9.746 11.7711 9.746 11.7668 9.63832 11.5644C9.1344 10.6125 8.30746 10.0957 7.24794 10.0698C6.24871 10.044 5.37008 10.5221 4.87047 11.349C4.34071 12.2233 4.33209 13.313 4.85755 14.2563L5.96014 16.2504C7.57957 19.1792 9.255 22.207 10.9433 25.1702C12.5628 28.0128 15.0436 29.5332 18.3169 29.6926C19.4971 29.7485 20.6772 29.727 21.9865 29.6969C22.1717 29.6926 22.232 29.7184 22.2535 29.7399C22.2751 29.7615 22.2966 29.8218 22.2837 29.994C22.2191 30.9588 22.6369 31.691 23.481 32.1131C23.5672 32.1562 23.5672 32.1777 23.5672 32.3026V32.9056C23.5672 33.4526 23.5629 33.9996 23.5758 34.5465C23.5758 34.7145 23.5284 34.8351 23.4035 34.9772C22.7058 35.787 22.3311 36.7388 22.288 37.8199C22.2837 38.0008 22.2234 38.1257 22.0813 38.2635L21.6506 38.6856C20.9528 39.3704 20.2335 40.0767 19.553 40.8003C19.1697 41.2138 18.9414 41.3473 18.5323 41.1233C18.3902 41.0458 18.2222 41.0501 18.0757 41.0544H17.9939C17.7484 41.0544 17.4986 41.0544 17.2488 41.0544C16.8526 41.0544 16.452 41.0587 16.0601 41.0501C15.0565 41.02 14.2942 41.4162 13.6955 42.2561C13.3639 42.7255 13.0236 43.1864 12.6834 43.6516C12.2441 44.2502 11.8047 44.8532 11.3784 45.4648C11.1975 45.7232 11.0209 45.8094 10.7022 45.7964C9.9915 45.7663 9.27653 45.7792 8.58311 45.7921C7.67433 45.8094 6.97229 46.5157 6.95075 47.4374C6.95075 47.726 6.95075 48.0102 6.95075 48.3031C6.96798 49.2463 7.64418 49.9484 8.55726 49.9785C9.38421 50.0087 10.2155 49.9958 11.0166 49.9785C11.2707 49.9785 11.4946 49.8881 11.6497 49.7287C11.7918 49.5823 11.8737 49.3799 11.8693 49.1559C11.8607 48.6821 11.5248 48.3806 10.995 48.3677C10.6117 48.3677 10.2284 48.3677 9.84506 48.3677H9.27223C9.16024 48.3677 9.0698 48.3677 8.98366 48.3677C8.80707 48.3677 8.62618 48.372 8.59172 48.3462C8.56157 48.3117 8.56157 48.1136 8.56157 47.9198C8.56157 47.8293 8.56157 47.7217 8.56157 47.6011C8.56157 47.5106 8.57449 47.4503 8.59603 47.4245C8.61756 47.3986 8.68217 47.39 8.78123 47.39C9.09133 47.39 9.39713 47.39 9.70723 47.39C10.0992 47.39 10.4954 47.3857 10.8874 47.39C11.6195 47.4073 12.1665 47.1273 12.5929 46.5243C12.9633 45.9989 13.3423 45.482 13.7257 44.9609C14.1521 44.3794 14.5741 43.8023 14.9876 43.2122C15.2848 42.7901 15.6337 42.6179 16.1161 42.6394C16.6803 42.6696 17.2488 42.6696 17.8087 42.6394C18.2566 42.6265 18.5883 42.7901 18.8682 43.1821C19.2128 43.6688 19.566 44.1512 19.9191 44.6335C20.3541 45.2279 20.8064 45.8438 21.2328 46.4597C21.6764 47.0972 22.2578 47.39 23.0762 47.3857C25.445 47.3728 27.8139 47.3771 30.1827 47.3771H32.5516C32.8875 47.3771 33.0555 47.5523 33.0555 47.9026C33.0555 48.2012 32.9019 48.3505 32.5946 48.3505H14.4191C14.3028 48.3505 14.1865 48.3462 14.0702 48.3548C13.6223 48.3806 13.3467 48.6434 13.3036 49.0913C13.2562 49.522 13.562 49.8924 14.0099 49.9527C14.1262 49.9699 14.2382 49.9656 14.3502 49.9656H14.4622C16.017 49.9656 17.5675 49.9656 19.118 49.9613C23.4466 49.957 27.9259 49.9527 32.3276 49.9872H32.3621C33.245 49.9872 33.8308 49.802 34.2012 49.41C34.5673 49.0267 34.7223 48.4366 34.6749 47.6183C34.606 46.408 33.96 45.7706 32.8057 45.7706H24.4113C24.3726 45.7706 24.3295 45.7706 24.2907 45.7706C24.2821 45.7706 24.2735 45.7706 24.2649 45.7706C25.2641 44.7757 26.2418 43.8023 27.2109 42.8246C27.3056 42.7255 27.4219 42.7083 27.5727 42.6868L27.6287 42.6782C29.4807 42.3896 30.7512 41.3861 31.4102 39.6934C32.0692 37.9878 31.7892 36.3813 30.5747 34.9126C30.4799 34.8007 30.4455 34.7102 30.4455 34.5982C30.4498 34.1331 30.4498 33.6636 30.4498 33.1985C30.4498 32.8883 30.4498 32.5782 30.4498 32.2681V32.2035C30.4498 32.1777 30.4455 32.1432 30.467 32.1217C31.3844 31.6953 31.8108 30.9114 31.7376 29.783C31.7332 29.7098 31.7376 29.6839 31.7376 29.6839C31.7419 29.6839 31.7677 29.6667 31.8625 29.671C32.5214 29.6753 33.1761 29.6753 33.8308 29.6753H34.494C34.494 29.6753 34.5113 29.6753 34.5199 29.6753C35.9455 29.6753 36.9792 30.2912 37.6726 31.5575C38.4651 33.0089 39.2748 34.4518 40.0845 35.8946L41.5704 38.5607C42.2897 39.8528 43.0047 41.1449 43.7369 42.4241C44.2882 43.4017 45.1711 43.8841 46.278 43.8152C47.372 43.7549 48.1989 43.1692 48.6684 42.1139C48.7158 42.0106 48.7502 41.9029 48.789 41.7995C48.8105 41.7306 48.8364 41.666 48.8622 41.5971L48.8751 40.5893L48.8622 40.5247V40.5462ZM33.0512 24.2054C33.0512 24.2054 33.0253 24.2184 32.9263 24.2054C32.8488 24.1968 32.7712 24.1925 32.6937 24.1925C32.6334 24.1925 32.5774 24.1925 32.5171 24.1925C32.4611 24.1925 32.4051 24.1925 32.3491 24.1925C31.9385 24.1925 31.7332 23.9901 31.7332 23.5852C31.7332 23.4259 31.7332 23.2622 31.7462 23.232C31.7849 23.2105 31.9572 23.2234 32.1252 23.2364C32.6248 23.2708 32.9737 23.5766 33.0383 24.0331C33.0598 24.1624 33.0426 24.1968 33.0469 24.1968L33.0512 24.2054ZM30.131 21.3843C30.144 21.5351 30.1224 21.5825 30.1095 21.5954C30.0966 21.6126 30.0449 21.6341 29.8812 21.6341C27.9991 21.6212 26.1169 21.6255 24.2348 21.6255H22.3526C20.548 21.6255 19.7038 22.3577 19.4454 24.1581V24.2011C19.3506 24.2011 19.2602 24.2011 19.1697 24.2011C18.7907 24.2054 18.4074 24.214 18.0068 24.1408C18.2437 23.7877 18.4806 23.4345 18.7132 23.0856C19.3549 22.1251 19.9579 21.2207 20.6083 20.3248C21.039 19.7305 21.6936 19.4117 22.4947 19.4117C24.687 19.3988 26.8793 19.4031 29.0758 19.4074H29.1577C29.752 19.4074 30.1095 19.7735 30.1224 20.3808C30.1224 20.4928 30.1224 20.6091 30.1224 20.7211C30.1224 20.9364 30.1138 21.1604 30.1353 21.3757L30.131 21.3843ZM21.2629 24.2227C21.0863 24.2227 21.0605 24.1882 21.0605 24.1882C21.0519 24.1796 21.039 24.1365 21.082 23.9556C21.2242 23.3699 21.7238 23.245 22.12 23.2407C22.6153 23.2407 23.1106 23.2407 23.6102 23.2407C24.1099 23.2407 24.6052 23.2407 25.1005 23.2407H27.5511C28.3522 23.2407 29.1534 23.245 29.9545 23.2407C30.088 23.2407 30.1138 23.2536 30.1138 23.2579C30.1138 23.2579 30.1353 23.2794 30.1353 23.4388C30.1353 23.8178 30.1353 24.0676 30.0707 24.1365C30.0018 24.2054 29.7477 24.2054 29.3601 24.2054H25.5699L25.4149 24.214H24.4975C23.438 24.214 22.344 24.2097 21.2672 24.227L21.2629 24.2227ZM45.1065 41.5885C44.5078 40.5333 43.9135 39.4651 43.3234 38.4013L41.6135 35.3261C40.7693 33.8144 39.9295 32.3069 39.0939 30.7908C38.0947 28.9948 36.5485 28.0817 34.494 28.0817C34.1064 28.0817 33.7188 28.0817 33.3311 28.0817C32.5344 28.0817 31.7376 28.0817 30.9408 28.0817H28.5504C28.2187 28.0817 27.8139 28.142 27.6287 28.5986C27.5253 28.8441 27.5468 29.1068 27.6804 29.3178C27.8225 29.5375 28.068 29.6753 28.3566 29.6882C28.9122 29.7184 29.4764 29.7098 30.0061 29.6969C30.0148 29.6969 30.0234 29.6969 30.032 29.6969C30.1052 29.6969 30.1095 29.7055 30.1138 29.7055C30.1138 29.7055 30.131 29.7313 30.131 29.8261C30.1397 30.2266 30.0966 30.4463 29.9889 30.554C29.8812 30.6616 29.6702 30.709 29.2826 30.709C27.7363 30.709 26.1815 30.709 24.631 30.709C24.3338 30.709 24.1055 30.6143 23.972 30.4377C23.8385 30.2611 23.8127 30.0027 23.8859 29.6969C23.8945 29.6969 23.9203 29.6969 23.9376 29.6969C23.9634 29.6969 23.9893 29.6969 24.0108 29.6969C24.2563 29.6969 24.5061 29.6969 24.7516 29.6969H25.1263C25.5096 29.6969 25.781 29.6064 25.9532 29.4298C26.0868 29.292 26.1557 29.1025 26.1514 28.8699C26.1428 28.5124 25.9619 28.0817 25.1392 28.0817C24.3467 28.0817 23.5542 28.0817 22.7618 28.0817H21.7324V28.0602H21.5687C21.2112 28.0602 20.8581 28.0645 20.5006 28.0731C19.7382 28.086 18.9458 28.099 18.1748 28.0473C15.6552 27.8836 13.7558 26.7293 12.5283 24.6232C11.163 22.2802 9.82783 19.8683 8.54004 17.5339C7.99735 16.5519 7.45467 15.5699 6.90768 14.5922L6.62342 14.0797C6.50713 13.8729 6.39084 13.6705 6.28317 13.4638C5.93861 12.8263 6.08074 12.1415 6.61481 11.8357C6.89907 11.672 7.19625 11.6247 7.47621 11.7022C7.79062 11.7883 8.05765 12.0123 8.25577 12.3612C8.89321 13.4853 9.52203 14.6137 10.1465 15.7422L11.6971 18.5288C12.5412 20.0449 13.3854 21.5652 14.2296 23.0813C15.2331 24.8989 16.8009 25.8206 18.8855 25.8206H18.8984C21.4654 25.8119 24.0366 25.8119 26.6036 25.8076C29.1706 25.8076 31.7419 25.8076 34.3088 25.7947H34.3433C36.8887 25.7947 38.8527 26.7078 40.3429 28.5813C40.5755 28.8742 40.7909 29.2059 40.989 29.5633C43.0047 33.1726 45.0204 36.7819 47.0274 40.3955C47.3375 40.9597 47.3289 41.4119 46.993 41.8168C46.7475 42.1096 46.4029 42.2604 46.0411 42.2259C45.6535 42.1915 45.3132 41.9546 45.0979 41.5756L45.1065 41.5885ZM28.8303 33.655C27.5899 33.1769 26.3969 33.1812 25.1952 33.6593V33.5042C25.1952 33.1166 25.1952 32.7505 25.1909 32.3801C25.1909 32.3543 25.1909 32.3371 25.1909 32.3327C25.1995 32.3327 25.2211 32.3327 25.2512 32.3327C26.427 32.3414 27.6028 32.3414 28.7829 32.3327H28.7916C28.8131 32.3327 28.826 32.3327 28.8346 32.3327C28.8346 32.3586 28.8346 32.4103 28.8346 32.4275C28.8346 32.7376 28.8346 33.052 28.8346 33.3793V33.6593L28.8303 33.655ZM15.0264 21.2121C15.0264 21.2121 15.0092 21.2164 15.0048 21.2207C15.0005 21.2078 14.9962 21.1905 14.9919 21.1776C14.979 21.1388 14.9704 21.0958 14.9489 21.0613C14.3631 20.0147 13.7817 18.9724 13.1959 17.9258L10.7108 13.4681C10.6505 13.3647 10.5514 13.1881 10.5514 13.1537C10.5816 13.1149 10.7754 13.0503 10.896 13.0072C10.9692 12.9857 11.0424 12.9728 11.107 12.9642C11.1372 12.9598 11.163 12.9555 11.1845 12.9512C11.5722 12.9728 11.8306 13.1235 11.9986 13.4164L12.3776 14.0926C13.4328 15.9747 14.5268 17.9258 15.582 19.851C15.7112 20.0879 15.7327 20.3593 15.6337 20.6177C15.5303 20.8933 15.3106 21.1087 15.0307 21.2121H15.0264ZM27.0257 34.9169H27.0386C27.8656 34.9169 28.6408 35.2486 29.2223 35.8386C29.808 36.433 30.1267 37.2212 30.1224 38.0568C30.1052 39.7537 28.714 41.132 27.0128 41.132H27.0042C26.1815 41.132 25.402 40.8089 24.8162 40.2189C24.2218 39.6245 23.8988 38.8406 23.8988 38.0094C23.8988 37.1867 24.2261 36.4115 24.8119 35.83C25.402 35.2443 26.1901 34.9213 27.0257 34.9213V34.9169ZM25.2771 42.4197L22.3871 45.3097C22.1372 44.9695 21.8788 44.6163 21.6204 44.2588L20.7719 43.0959C20.6169 42.8849 20.4618 42.6696 20.2982 42.4499C20.2809 42.4241 20.2508 42.3853 20.2465 42.3853C20.2465 42.3853 20.2508 42.3724 20.2723 42.3508C20.9873 41.6488 21.6936 40.9424 22.4172 40.2189L22.6928 39.9432C23.2485 41.1233 24.0969 41.9374 25.2727 42.4197H25.2771Z" fill="#16ACE0"/>
<path d="M26.9868 40.1587C26.9868 40.1587 27.004 40.1587 27.0127 40.1587C27.5726 40.1587 28.1066 39.939 28.5115 39.5385C28.925 39.1293 29.1532 38.5866 29.1532 38.0138C29.1532 36.8466 28.1971 35.8904 27.0299 35.8818H27.0213C26.4398 35.8818 25.8971 36.1058 25.4923 36.5107C25.0874 36.9155 24.8721 37.4496 24.8721 38.0181C24.8721 39.1896 25.8239 40.1501 26.9911 40.1587H26.9868ZM27.004 38.5436C26.7284 38.5436 26.4872 38.2938 26.4829 38.0181C26.4829 37.8803 26.5346 37.7468 26.6379 37.6477C26.737 37.5486 26.8748 37.4927 27.0127 37.4927C27.017 37.4927 27.0256 37.4927 27.0299 37.4927C27.1677 37.497 27.2969 37.5573 27.3917 37.6563C27.4864 37.7597 27.5381 37.8889 27.5338 38.0267C27.5295 38.3024 27.2797 38.5436 27.004 38.5436Z" fill="#1B3954"/>
</g>
<defs>
<clipPath id="clip0_436_1937">
<rect width="52.8297" height="50" fill="white" transform="translate(0.584961)"/>
</clipPath>
</defs>
</svg>
