<svg width="50" height="50" viewBox="0 0 50 50" fill="none" xmlns="http://www.w3.org/2000/svg">
<g clip-path="url(#clip0_436_1944)">
<path d="M24.998 6.92916C34.9637 6.92916 43.0668 15.0363 43.0668 24.998C43.0668 34.9596 34.9596 43.0668 24.998 43.0668C15.0363 43.0668 6.92916 34.9596 6.92916 24.998C6.92916 15.0363 15.0363 6.92916 24.998 6.92916ZM24.998 0C11.1926 0 0 11.1926 0 24.998C0 38.8033 11.1926 49.9959 24.998 49.9959C38.8033 49.9959 49.9959 38.8033 49.9959 24.998C49.9959 11.1926 38.8074 0 24.998 0Z" fill="#1B3954"/>
<path d="M28.0345 15.1709H21.9653V34.8253H28.0345V15.1709Z" fill="#16ACE0"/>
<path d="M15.1709 21.9655V28.0347H34.8253V21.9655H15.1709Z" fill="#16ACE0"/>
</g>
<defs>
<clipPath id="clip0_436_1944">
<rect width="50" height="50" fill="white"/>
</clipPath>
</defs>
</svg>
