<svg width="52" height="50" viewBox="0 0 52 50" fill="none" xmlns="http://www.w3.org/2000/svg">
<g clip-path="url(#clip0_436_1923)">
<path d="M26.2905 0C13.4431 0 2.83037 9.47257 1.21826 21.7453C1.90269 21.3785 2.69019 21.1706 3.52304 21.1706H8.42946C10.2106 13.039 17.5414 6.92916 26.2905 6.92916C36.1198 6.92916 44.1597 14.6368 44.5555 24.2602C44.5679 24.5048 44.572 24.7534 44.572 25.002C44.572 26.1148 44.4689 27.2031 44.2752 28.2587C44.1226 29.078 43.9165 29.8769 43.6567 30.6554C43.3763 31.4991 43.0341 32.3103 42.6301 33.0929C42.4115 33.529 42.1724 33.957 41.9168 34.3727C41.7354 34.6703 41.5416 34.9637 41.3396 35.249C38.037 39.969 32.5245 43.0708 26.2905 43.0708C20.0564 43.0708 14.6924 40.0546 11.3774 35.4365H3.52304C3.44883 35.4365 3.37461 35.4365 3.30452 35.4284C7.29974 44.0287 16.0901 50 26.2905 50C40.2593 50 51.5812 38.8074 51.5812 25.002C51.5812 11.1967 40.2593 0 26.2905 0Z" fill="#1B3954"/>
<path d="M17.327 33.7041C19.2731 35.037 21.6356 35.8114 24.1878 35.8114C26.7399 35.8114 29.1024 35.0329 31.0526 33.7041H37.5423C38.4988 33.7041 39.3729 33.3047 39.9873 32.6688C40.5645 32.0819 40.9232 31.2871 40.9356 30.4148V26.1269C40.9356 24.2846 39.4059 22.7724 37.5423 22.7724H36.2518C35.7076 16.6584 30.5125 11.8691 24.1878 11.8691C17.863 11.8691 12.668 16.6584 12.1238 22.7724H3.8076C2.93351 22.7724 2.13776 23.1025 1.53168 23.6487C0.847253 24.2642 0.418457 25.1487 0.418457 26.131V30.3578C0.418457 31.9556 1.56466 33.3047 3.09019 33.6349C3.32108 33.6838 3.56434 33.7123 3.81172 33.7123H17.3312L17.327 33.7041ZM37.5464 24.9163C38.2102 24.9163 38.7668 25.4707 38.7668 26.1228V30.3496C38.7668 31.0058 38.2102 31.5561 37.5464 31.5561H33.4522C35.0108 29.7301 36.0291 27.4353 36.2559 24.9163H37.5464ZM14.1853 22.7683C14.7254 17.7793 19.0051 13.8867 24.1919 13.8867C29.3787 13.8867 33.6584 17.7793 34.2026 22.7683C34.2397 23.1188 34.2604 23.4775 34.2604 23.8403C34.2604 24.203 34.2397 24.5658 34.2026 24.9204C33.9099 27.5943 32.5411 29.9502 30.5373 31.5602C29.1231 32.7015 27.3873 33.4677 25.4865 33.7041C25.0619 33.7653 24.6331 33.7897 24.1919 33.7897C23.7507 33.7897 23.3219 33.7653 22.8973 33.7041C21.0007 33.4677 19.2649 32.7015 17.8465 31.5602C15.8427 29.9502 14.478 27.5943 14.1853 24.9204C14.1482 24.5658 14.1276 24.2071 14.1276 23.8403C14.1276 23.4734 14.1482 23.1188 14.1853 22.7683ZM2.5913 30.3537V26.1269C2.5913 25.4747 3.14791 24.9204 3.8076 24.9204H12.1238C12.3547 27.4394 13.373 29.7341 14.9316 31.5602H3.8076C3.14791 31.5602 2.5913 31.0099 2.5913 30.3537Z" fill="#16ACE0"/>
<path d="M19.0051 24.0808C19.0133 24.3661 19.0463 24.6474 19.1082 24.9164C19.5947 27.3171 21.7428 29.1269 24.3197 29.1269C26.8966 29.1269 29.0365 27.3212 29.5271 24.9164C29.5972 24.5781 29.6343 24.2275 29.6343 23.8648C29.6343 23.502 29.5931 23.1229 29.5189 22.7683C29.0117 20.4246 26.9172 18.6475 24.398 18.6108H24.3692C24.3444 18.6108 24.3197 18.6108 24.2908 18.6108C24.2579 18.6108 24.2166 18.6108 24.1878 18.6108C23.6724 18.6638 23.2683 19.0918 23.2683 19.6176C23.2683 20.176 23.7301 20.6325 24.295 20.6325H24.3197C25.7298 20.6325 26.9419 21.5211 27.3914 22.7683C27.5192 23.1107 27.5851 23.4816 27.5851 23.8648C27.5851 24.2479 27.5233 24.5903 27.4079 24.9164C26.9667 26.1881 25.7463 27.1011 24.3197 27.1011C22.8931 27.1011 21.6686 26.1881 21.2233 24.9164C21.1161 24.6229 21.0584 24.3009 21.0501 23.9789C21.0501 23.4205 20.5883 22.964 20.0194 22.964C19.4504 22.964 19.0133 23.4042 19.001 23.9463C19.001 23.9544 19.001 23.9667 19.001 23.9748C19.001 23.9993 19.001 24.0197 19.001 24.0441C19.001 24.0563 19.001 24.0686 19.001 24.0767L19.0051 24.0808Z" fill="#1B3954"/>
</g>
<defs>
<clipPath id="clip0_436_1923">
<rect width="51.1628" height="50" fill="white" transform="translate(0.418457)"/>
</clipPath>
</defs>
</svg>
