<svg width="50" height="50" viewBox="0 0 50 50" fill="none" xmlns="http://www.w3.org/2000/svg">
<g clip-path="url(#clip0_436_1929)">
<path d="M24.9999 0C11.1946 0 0.00195312 11.1926 0.00195312 24.998V25.1365H6.93519C6.93111 25.0917 6.93111 25.0428 6.93111 24.998C6.93111 15.0363 15.0342 6.92916 24.9999 6.92916C34.9657 6.92916 43.0687 15.0363 43.0687 24.998C43.0687 25.7113 43.028 26.4164 42.9424 27.1093C42.9138 27.3743 42.8771 27.6392 42.8364 27.9041C42.763 28.3525 42.6733 28.8008 42.5633 29.237C42.4696 29.6405 42.3595 30.0359 42.2372 30.4231C39.9302 37.7476 33.0744 43.0708 24.9999 43.0708C20.8628 43.0708 17.0436 41.6728 13.9948 39.3209H10.1308C8.42292 39.3209 6.51536 39.3209 4.51814 39.3291C9.03432 45.7814 16.526 50 24.9999 50C38.8052 50 49.9979 38.8074 49.9979 24.998C49.9979 11.1886 38.8052 0 24.9999 0Z" fill="#1B3954"/>
<path d="M11.4797 36.6511H13.6644C14.9076 36.6511 16.1426 36.6511 17.3858 36.6511C19.1099 36.6511 20.8341 36.6511 22.5582 36.6511C25.5011 36.6511 28.4439 36.6511 31.3827 36.6593C31.6721 36.6593 31.8881 36.59 32.1001 36.3739C34.7902 33.6675 37.4926 31.5806 40.195 28.8945C40.4232 28.6663 40.4681 28.544 40.2113 28.2913C39.0129 27.1256 38.3975 26.4693 37.2317 25.2751C37.1094 25.1487 37.0116 25.0835 36.9179 25.0835C36.8241 25.0835 36.7263 25.1487 36.6 25.2751C34.509 27.3946 31.827 29.616 29.7319 31.7314C29.4874 31.98 29.2387 32.0697 28.9004 32.0697C23.5242 32.0616 18.1439 32.0616 12.7677 32.0616H5.36574C4.96222 32.0616 4.56685 32.0697 4.16333 32.0697C3.87801 32.0697 3.59677 32.0697 3.31553 32.0534C3.29515 32.0534 3.27477 32.0534 3.25846 32.0534C3.23401 32.0534 3.20548 32.0534 3.1851 32.0534C2.93646 32.0697 2.8794 32.2042 2.8957 32.4895C2.92016 32.9909 2.91608 32.8442 2.8957 33.3455C2.8794 33.6267 2.97722 33.7001 3.23401 33.7001H3.25439C3.48264 33.7001 3.70682 33.7001 3.93915 33.7001C4.19594 33.7001 4.44865 33.7001 4.70951 33.7001H6.44588C7.13879 33.7001 7.83579 33.7001 8.52463 33.7001C8.92815 33.7001 9.32759 33.7001 9.73111 33.7001C10.0124 33.7001 10.2325 33.8061 10.367 34.0588C10.4892 34.2789 10.4648 34.499 10.3262 34.7069C10.1632 34.9433 9.92269 34.98 9.64959 34.98H6.44995C5.79372 34.98 5.13341 34.98 4.48126 34.98C4.08589 34.98 3.69459 34.98 3.3033 34.98H3.29107C2.99353 34.98 2.86717 35.0452 2.88755 35.3753C2.91201 35.8481 2.92016 35.7096 2.88755 36.1783C2.85902 36.5737 2.96907 36.6837 3.37259 36.6837H3.38074C4.16333 36.6837 4.94184 36.6837 5.72035 36.6837C7.63606 36.6837 9.55585 36.6756 11.4716 36.6756L11.4797 36.6511ZM12.9878 33.6879H13.0041C13.3343 33.6879 13.6359 33.9854 13.64 34.3115C13.64 34.6661 13.3669 34.9555 13.0204 34.9637H13.0041C12.6454 34.9637 12.3846 34.7028 12.3805 34.3482C12.3805 33.9977 12.6536 33.696 12.996 33.6879H12.9878Z" fill="#16ACE0"/>
<path d="M3.52782 30.0686C6.84159 30.0482 10.1554 30.0564 13.4691 30.0564H21.723C22.3303 30.0564 22.9376 30.0482 23.5449 30.0564C23.7773 30.0604 23.9036 30.0278 23.8955 29.7425C23.8792 28.8295 23.8832 27.9206 23.8955 27.0075C23.8955 26.7711 23.8262 26.6815 23.5857 26.6937C23.1455 26.71 22.7053 26.6978 22.2651 26.6978C19.8317 26.6978 17.4024 26.6978 14.9691 26.6978C14.1254 26.6978 13.6077 27.1298 13.6077 27.8879C13.6077 28.2874 13.4447 28.3159 13.1267 28.3118C10.726 28.2996 8.32525 28.2955 5.9245 28.3118C5.55358 28.3118 5.48021 28.1977 5.48429 27.8553C5.49244 27.0687 4.9911 26.5347 4.2941 26.5266C3.58081 26.5143 3.07131 27.0605 3.05908 27.8676C3.05093 28.43 3.08354 28.9925 3.04686 29.555C3.0224 29.9504 3.1243 30.0645 3.53597 30.0604L3.52782 30.0686Z" fill="#1B3954"/>
<path d="M18.2949 10.9766C18.2908 10.675 18.1278 10.4671 17.8465 10.3612C17.5653 10.2552 17.3085 10.3123 17.0966 10.5201C16.8805 10.728 16.8765 10.997 16.8765 11.2742C16.8765 13.3774 16.8765 15.4806 16.8765 17.5838C16.8765 19.5688 16.8765 21.5538 16.8765 23.5388C16.8765 24.4396 16.8765 24.4151 17.7773 24.4477C18.193 24.46 18.3153 24.3622 18.3112 23.926C18.2908 20.922 18.3031 17.9221 18.2949 14.9181C18.2949 14.5798 18.356 14.429 18.7351 14.4535C19.2772 14.4861 19.8193 14.4779 20.3614 14.4535C20.6671 14.4412 20.7812 14.5268 20.769 14.8488C20.7486 15.5417 20.7568 16.2387 20.7649 16.9357C20.7731 17.5757 20.9932 17.7917 21.6209 17.7998C21.7554 17.7998 21.894 17.8161 22.0285 17.7998C22.4157 17.7428 22.5461 17.8773 22.5421 18.2889C22.5176 20.0375 22.5298 21.7821 22.5298 23.5307C22.5298 24.4518 22.5298 24.4274 23.4673 24.4559C23.8912 24.4681 23.9646 24.3173 23.9605 23.9342C23.9442 22.206 23.9524 20.4737 23.9524 18.7455C23.9524 18.1313 24.2553 17.8175 24.8613 17.8039C25.4564 17.7917 25.6969 17.5634 25.701 16.9724C25.7091 15.3624 25.7091 13.7483 25.701 12.1383C25.701 11.5473 25.4564 11.3027 24.8654 11.2986C23.985 11.2905 23.1005 11.2986 22.2201 11.2986C20.8261 11.2986 20.8179 11.2986 20.769 12.6967C20.7609 12.9494 20.7079 13.0595 20.4307 13.0472C19.8397 13.0269 19.2446 13.0269 18.6495 13.0472C18.3397 13.0595 18.2868 12.925 18.2949 12.6559C18.3112 12.0975 18.3031 11.5351 18.2949 10.9766Z" fill="#16ACE0"/>
<path d="M27.963 27.4274C29.2673 27.4274 30.2904 26.3472 30.2945 24.9695C30.2945 23.5959 29.2673 22.4914 27.9793 22.4832C26.675 22.475 25.6112 23.5959 25.6152 24.9736C25.6193 26.335 26.6668 27.4314 27.963 27.4274Z" fill="#1B3954"/>
</g>
<defs>
<clipPath id="clip0_436_1929">
<rect width="49.9959" height="50" fill="white" transform="translate(0.00195312)"/>
</clipPath>
</defs>
</svg>
