<svg width="50" height="50" viewBox="0 0 50 50" fill="none" xmlns="http://www.w3.org/2000/svg">
<path d="M13.6465 33.2966L16.5015 35.9169L33.527 22.2316L29.0791 17.2625L13.6465 33.2966Z" fill="#16ACE0"/>
<path d="M12.8872 34.0161L6.33008 40.7604C7.13326 41.5105 8.02419 42.2606 9.00961 43.0107L15.8333 36.7077L12.8872 34.0161Z" fill="#16ACE0"/>
<path d="M32.2683 11.7436C31.4719 13.2846 31.6237 14.9681 31.6237 14.9681L29.771 16.6754L34.2931 21.6038C34.2931 21.6038 36.1796 19.7845 36.1796 19.7505C36.3517 19.7573 36.5205 19.7607 36.6824 19.7607H36.9153C37.2764 19.7539 37.6139 19.7302 37.9277 19.6861C40.1685 19.384 41.2619 18.2333 41.7817 17.008C41.9909 16.5159 42.1056 16.0135 42.163 15.5485C42.3081 14.4217 42.1225 13.5086 42.1225 13.5086L42.8818 12.8026L44.1136 11.6554L39.9391 7.41943C39.9391 7.41943 38.7849 8.60061 38.1639 9.08598C38.0053 9.20817 37.8805 9.28285 37.8164 9.28285H37.7995C37.7995 9.28285 37.7759 9.27945 37.7657 9.27945C37.4755 9.25569 37.2022 9.24212 36.9423 9.24212H36.7803C35.0794 9.27606 33.9388 9.80555 33.1727 10.5319C32.7846 10.8985 32.491 11.316 32.2683 11.7436ZM36.9963 12.8162C37.084 12.7958 37.1785 12.7823 37.2696 12.7789H37.3C38.1302 12.7789 38.8153 13.4238 38.876 14.2519C38.8828 14.2825 38.8828 14.3164 38.8861 14.3538C38.8996 15.2329 38.2078 15.9626 37.327 15.9796H37.2966C36.4361 15.9796 35.7274 15.2804 35.7105 14.4115C35.697 13.624 36.2539 12.9554 36.9963 12.8162Z" fill="#16ACE0"/>
<path d="M49.7661 7.08672L45.1798 2.26017C44.7512 1.81214 44.002 1.96488 43.786 2.54868L43.3068 3.83168L40.6543 6.25853L45.3215 10.9629L47.532 8.87885L49.3307 8.4987C49.9753 8.36633 50.2183 7.56869 49.7661 7.09011V7.08672Z" fill="#16ACE0"/>
<path d="M42.713 17.4052C42.1596 18.7153 40.9379 20.2529 38.2314 20.6738C38.5992 22.0417 38.7916 23.4672 38.7983 24.9131C38.8017 25.1473 38.7983 25.3849 38.7916 25.6191C38.7882 25.7481 38.7815 25.8771 38.7747 26.0061C38.7713 26.0604 38.768 26.1147 38.7612 26.169C38.7376 26.5695 38.6971 26.9632 38.6431 27.3536C38.6195 27.5335 38.5925 27.71 38.5621 27.8831C38.5385 28.0358 38.5081 28.1885 38.4777 28.3413C38.4305 28.5924 38.3765 28.8402 38.3124 29.0846C38.2786 29.2306 38.2415 29.3765 38.201 29.5191C38.1571 29.6888 38.1065 29.8585 38.0525 30.0282C38.0525 30.0418 38.0458 30.052 38.0424 30.0655C37.9951 30.2183 37.9445 30.3744 37.8905 30.5271C37.8365 30.6901 37.7792 30.8496 37.7184 31.0091C37.5935 31.3451 37.4552 31.6744 37.3101 31.9968C37.2358 32.1597 37.1616 32.3193 37.084 32.4754C37.0097 32.6315 36.9287 32.7877 36.8444 32.9438C36.7634 33.0999 36.679 33.2527 36.5879 33.4054C35.7071 34.943 34.5799 36.3414 33.2266 37.5565C30.1489 40.3126 26.2612 41.806 22.1778 41.806H22.0259C21.9314 41.806 21.8369 41.806 21.7391 41.8027C21.6142 41.8027 21.4893 41.7993 21.3645 41.7891C21.3543 41.7891 21.3408 41.7891 21.3307 41.7891C21.2801 41.7891 21.2329 41.7857 21.1822 41.7823C21.1046 41.7789 21.0236 41.7721 20.946 41.7653C20.8144 41.7585 20.6828 41.745 20.5512 41.7314H20.5343C18.7221 41.5583 16.9773 41.0933 15.3541 40.3669L13.7713 41.7857L10.9771 44.2906C11.112 44.3687 11.2437 44.4467 11.3786 44.5214C11.517 44.5961 11.652 44.6707 11.787 44.742C11.9254 44.8167 12.0603 44.888 12.1987 44.9559C12.4721 45.095 12.7522 45.2274 13.0323 45.353C13.1706 45.4175 13.3124 45.4786 13.4541 45.5397C13.7342 45.6619 14.0177 45.7739 14.3045 45.8825C14.3923 45.9164 14.48 45.947 14.5678 45.9809C14.8074 46.0692 15.0504 46.1506 15.2933 46.2321C15.3844 46.2626 15.4789 46.2898 15.5734 46.3203C15.7287 46.3712 15.8873 46.4154 16.0459 46.4629C16.191 46.5036 16.3361 46.5443 16.4812 46.5817C16.92 46.6971 17.3654 46.8023 17.8109 46.8906C18.0471 46.9381 18.2867 46.9822 18.5263 47.0195C18.7356 47.0569 18.9448 47.0874 19.154 47.1146C19.2654 47.1315 19.3801 47.1451 19.4915 47.1553C19.8492 47.1994 20.2103 47.2368 20.5748 47.2605C20.7435 47.2707 20.9123 47.2809 21.081 47.2877C21.432 47.3046 21.7829 47.3114 22.1373 47.3114C22.3701 47.3114 22.6064 47.3046 22.8392 47.2979C22.9236 47.2945 23.0113 47.2911 23.0957 47.2877H23.1193C23.3049 47.2809 23.4872 47.2707 23.6694 47.2571L23.6593 47.2673C23.8078 47.2571 23.9596 47.2435 24.1081 47.23C24.2397 47.2198 24.3714 47.2062 24.503 47.1926C24.9484 47.1417 25.3939 47.0806 25.836 47.006C25.9609 46.989 26.0823 46.9652 26.2038 46.9415C26.6459 46.8566 27.088 46.7616 27.5267 46.653C27.682 46.6122 27.8372 46.5715 27.9924 46.5274C28.1544 46.4866 28.313 46.4391 28.4717 46.3916C28.6303 46.3441 28.7889 46.2932 28.9475 46.2423C29.1837 46.1676 29.42 46.0861 29.6528 46.0013H29.6562C29.889 45.913 30.1219 45.8248 30.3547 45.7331C30.51 45.6686 30.6652 45.6042 30.8205 45.5397C30.9757 45.4718 31.1276 45.4039 31.2828 45.336C31.5865 45.1968 31.8903 45.0475 32.1906 44.8948C32.491 44.7386 32.7913 44.5791 33.0849 44.4094C33.095 44.4026 33.1052 44.3992 33.1119 44.3958C33.3988 44.2295 33.6822 44.0564 33.9623 43.8799C34.1075 43.7849 34.2559 43.6898 34.4011 43.5948C34.8263 43.3063 35.2447 43.0042 35.6565 42.6851C35.9332 42.4713 36.2032 42.2473 36.4731 42.0199C36.6048 41.9045 36.7397 41.7891 36.8714 41.6703C37.0232 41.5311 37.1751 41.3954 37.3236 41.2528C37.4721 41.1136 37.6205 40.9711 37.7623 40.8251C37.8467 40.7437 37.9276 40.6588 38.0086 40.574C38.1099 40.4687 38.2111 40.3635 38.309 40.2583C38.4372 40.1191 38.5621 39.98 38.687 39.8408C38.8118 39.7016 38.9333 39.5591 39.0548 39.4165C39.1965 39.2502 39.3349 39.0805 39.4665 38.9108C39.6791 38.6427 39.8816 38.3745 40.0807 38.0996C40.0875 38.0928 40.0942 38.086 40.0976 38.0792C40.2798 37.8247 40.4553 37.5633 40.6308 37.302C40.6747 37.2341 40.7185 37.1662 40.7624 37.0983C40.9413 36.8234 41.11 36.5417 41.272 36.2599C41.4711 35.9205 41.6601 35.5743 41.839 35.2213C41.9065 35.0889 41.9706 34.9566 42.0347 34.8242C42.1157 34.6613 42.1899 34.4983 42.2642 34.3354C42.335 34.1827 42.4025 34.0299 42.47 33.8738C42.4869 33.8365 42.5038 33.7957 42.5207 33.755C42.578 33.6193 42.632 33.4835 42.686 33.3477C42.7535 33.1814 42.8176 33.0151 42.8784 32.8488C42.9425 32.6825 43.0032 32.5127 43.0606 32.343C43.1754 32.007 43.2833 31.6676 43.3812 31.3282C43.4825 30.9854 43.5736 30.6425 43.6546 30.2997C43.6951 30.1266 43.7356 29.9535 43.7727 29.7804C43.8098 29.6073 43.8469 29.4342 43.8773 29.2611C43.911 29.0948 43.9414 28.9251 43.9684 28.7588C43.9718 28.7452 43.9752 28.7282 43.9752 28.7146C44.0022 28.5619 44.0258 28.4058 44.046 28.253C44.0528 28.2293 44.0562 28.2055 44.0562 28.1818C44.0798 28.0188 44.1 27.8525 44.1203 27.6896C44.1405 27.5436 44.154 27.4011 44.1675 27.2551C44.1776 27.1669 44.1878 27.082 44.1911 26.9938C44.2013 26.875 44.2114 26.7562 44.2181 26.6374C44.235 26.4575 44.2451 26.2742 44.2519 26.0909C44.3903 23.0531 43.9178 19.9916 42.8278 17.1133C42.794 17.2117 42.7535 17.3068 42.713 17.4052Z" fill="#1B3954"/>
<path d="M5.4661 25.1878C5.42898 20.7108 7.12984 16.4885 10.2515 13.2945C11.5271 11.9911 12.9782 10.9254 14.5475 10.1142C15.1414 9.80867 15.7523 9.53714 16.3766 9.30973C16.5048 9.25882 16.6331 9.21469 16.7613 9.17396C16.8896 9.12644 17.0178 9.08571 17.146 9.04838C17.2878 9.00425 17.4295 8.96013 17.5713 8.9194C17.8716 8.83115 18.1787 8.75308 18.4858 8.6852C18.5634 8.66823 18.6444 8.65125 18.722 8.63768C18.857 8.60713 18.9886 8.57998 19.1236 8.55961C19.2417 8.53925 19.3599 8.51549 19.478 8.49852C19.6535 8.46797 19.8323 8.44081 20.0112 8.42045C20.19 8.39669 20.3689 8.37632 20.5478 8.35935C20.7266 8.34238 20.9055 8.32881 21.0877 8.31862C21.27 8.30505 21.4488 8.29826 21.6311 8.29486C21.7525 8.29486 21.874 8.28808 21.9955 8.28808C22.2486 8.28129 22.5017 8.28468 22.7582 8.29826C22.8662 8.29826 22.9776 8.30505 23.0889 8.31183C23.5513 8.33899 24.0136 8.38311 24.4692 8.451C24.4861 8.451 24.4996 8.45439 24.5164 8.45779C24.5839 8.46797 24.6548 8.47815 24.7223 8.48833C24.8944 8.51549 25.0632 8.54264 25.2319 8.57658C25.431 8.61392 25.6267 8.65465 25.8225 8.69877C25.8258 8.69877 25.8326 8.70217 25.836 8.70217C26.0351 8.74629 26.2342 8.79381 26.4333 8.84812C26.5953 8.89224 26.7539 8.93637 26.9125 8.98389C27.0306 9.02122 27.1521 9.05856 27.2702 9.09929C28.745 9.57448 30.1489 10.2601 31.4414 11.1426C31.7012 10.6674 32.0387 10.2024 32.4774 9.78831C33.5135 8.80739 34.9106 8.28129 36.6419 8.22698C34.9207 6.72335 33.0241 5.52859 31.0263 4.6495C30.9149 4.59859 30.8002 4.55107 30.6855 4.50015C30.2299 4.31008 29.7709 4.13358 29.3052 3.97405C28.8563 3.82131 28.4008 3.68215 27.9452 3.55657C27.7528 3.50226 27.5605 3.45135 27.3647 3.40722C27.1386 3.35292 26.9125 3.29861 26.683 3.25109C26.4569 3.20357 26.2274 3.15945 25.998 3.11872C25.6807 3.06102 25.3601 3.0135 25.0362 2.96937C24.891 2.9524 24.7459 2.93204 24.6008 2.91846C24.5806 2.91167 24.5603 2.90828 24.5367 2.90828C24.3815 2.8947 24.2262 2.87773 24.071 2.86415C23.9124 2.85057 23.7504 2.837 23.5884 2.82682C23.4264 2.81663 23.2644 2.80645 23.1024 2.79966C22.7818 2.78609 22.4579 2.7793 22.1373 2.7793C21.6412 2.7793 21.1417 2.79627 20.6456 2.82682C20.406 2.84718 20.1664 2.86415 19.9268 2.89131C19.694 2.91167 19.4577 2.93882 19.2249 2.97277C19.2114 2.97277 19.1945 2.97616 19.1776 2.97955C18.938 3.0101 18.6984 3.04744 18.4588 3.08477C18.2125 3.1289 17.9661 3.17302 17.7231 3.22054C17.4835 3.27146 17.2439 3.32576 17.0043 3.38346H17.0009C16.7613 3.44116 16.5217 3.50226 16.2821 3.56675C16.2821 3.56675 16.2799 3.56675 16.2754 3.56675C16.1032 3.61427 15.9345 3.66518 15.7624 3.71609C15.5903 3.76701 15.4182 3.82131 15.2461 3.87902C15.0335 3.94351 14.8208 4.01818 14.6116 4.09964C14.48 4.14376 14.3518 4.19128 14.2235 4.2422C14.0615 4.30329 13.8995 4.36778 13.7376 4.43566C13.4676 4.54428 13.2044 4.65968 12.9377 4.78187C12.8028 4.84297 12.6678 4.90746 12.5328 4.97534C12.3809 5.04662 12.2291 5.12129 12.0806 5.19936C11.8848 5.29779 11.6891 5.40301 11.4967 5.50823C11.3921 5.56593 11.2875 5.62703 11.1863 5.68473C10.5957 6.02415 10.0152 6.39072 9.45165 6.79123C9.30992 6.88967 9.16818 6.99149 9.02981 7.09332C8.89145 7.19854 8.75309 7.30376 8.61472 7.40898C8.47636 7.51759 8.33799 7.62621 8.203 7.73822C8.09501 7.82646 7.98365 7.91811 7.87566 8.00975C7.71704 8.14552 7.55843 8.28129 7.39982 8.42384C7.37957 8.44081 7.3627 8.45779 7.34245 8.47815C7.24458 8.563 7.14671 8.65125 7.05222 8.7429C7.02185 8.77005 6.99148 8.8006 6.9611 8.82775C6.85311 8.92958 6.7485 9.0314 6.64388 9.13662C5.97906 9.78492 5.36823 10.4705 4.80803 11.1799C4.70678 11.3055 4.60892 11.4311 4.51442 11.5567C4.40306 11.7026 4.29507 11.8486 4.18708 11.9979C4.1837 11.9979 4.1837 12.0013 4.18033 12.0047C4.07571 12.1541 3.97109 12.3034 3.86985 12.4528C3.79898 12.5512 3.73149 12.6496 3.66737 12.7514C3.61 12.8363 3.55263 12.9245 3.49863 13.0128C3.42101 13.1316 3.34677 13.2504 3.27252 13.3726C3.17803 13.5287 3.08354 13.6848 2.99242 13.841C2.91143 13.9801 2.83381 14.1193 2.75619 14.2585C2.55371 14.6284 2.36135 15.0018 2.17911 15.3819C2.11837 15.5075 2.05762 15.6365 2.00025 15.7655C1.94625 15.8843 1.89226 16.0031 1.84164 16.1219C1.78764 16.2441 1.73702 16.3663 1.6864 16.4885C1.60541 16.6819 1.53116 16.8754 1.45692 17.0723C1.40292 17.2114 1.34893 17.3506 1.30168 17.4897C1.25106 17.6323 1.20044 17.7748 1.15319 17.914C1.08907 18.1041 1.02833 18.2976 0.970958 18.4876C0.930461 18.62 0.889964 18.7524 0.852842 18.8848C0.673982 19.5127 0.522119 20.144 0.400629 20.7821C0.370256 20.9382 0.339884 21.0978 0.312886 21.2607C0.285888 21.4202 0.25889 21.5797 0.238642 21.7393C0.231892 21.7664 0.228517 21.797 0.225143 21.8241C0.218393 21.8852 0.208269 21.9429 0.20152 22.004C0.184646 22.1058 0.174522 22.2043 0.161023 22.3061C0.154273 22.3468 0.150899 22.3842 0.147524 22.4215L0.161023 22.4113C0.107027 22.8695 0.0631557 23.3278 0.0361578 23.7928C0.00241052 24.4105 -0.00771367 25.0215 0.00578525 25.6256C0.00578525 25.663 0.00578525 25.7003 0.00915998 25.7376V25.7512C0.00915998 25.7716 0.00915998 25.7919 0.0125347 25.8123C0.0192842 26.0092 0.0260336 26.2026 0.0395325 26.3961C0.0429073 26.481 0.0496567 26.5624 0.0564062 26.6473C0.0564062 26.7423 0.0699051 26.8407 0.0800293 26.9358C0.0800293 26.9663 0.0800293 27.0003 0.0867788 27.0308C0.083404 27.0308 0.0867788 27.0342 0.0867788 27.0342V27.0478C0.107027 27.265 0.127276 27.4789 0.154273 27.6961C0.167772 27.8183 0.181271 27.9439 0.198145 28.066C0.215018 28.1984 0.235267 28.3308 0.255515 28.4632C0.296012 28.7381 0.343258 29.0096 0.393879 29.2812C0.424252 29.4339 0.454624 29.5833 0.484997 29.736C0.538993 29.9872 0.596363 30.2349 0.660483 30.4827C0.687481 30.6049 0.717853 30.7271 0.751601 30.8459C0.849468 31.2159 0.957459 31.5824 1.07557 31.9456C1.21731 32.3767 1.36918 32.801 1.53116 33.2184C1.53454 33.2252 1.53454 33.2286 1.53791 33.2354C1.60878 33.4119 1.67965 33.5884 1.7539 33.7649C1.83151 33.9482 1.91251 34.1315 1.99688 34.3148C2.07112 34.4811 2.14536 34.644 2.22636 34.8035C2.30735 34.9766 2.39172 35.1429 2.47946 35.3127L5.105 32.6245L6.58651 31.1106C5.95206 29.4678 5.57746 27.7164 5.48635 25.9141C5.47622 25.6731 5.46947 25.4288 5.4661 25.1878Z" fill="#1B3954"/>
</svg>
