<svg width="29" height="25" viewBox="0 0 29 25" fill="none" xmlns="http://www.w3.org/2000/svg">
<path d="M1.33538 12.1224L7.78715 14.493L10.2844 22.3993C10.4442 22.9057 11.0731 23.0929 11.4906 22.7568L15.0869 19.8706C15.4639 19.5682 16.0009 19.5531 16.3948 19.8347L22.8813 24.4708C23.3279 24.7904 23.9606 24.5495 24.0726 24.0182L28.8243 1.51675C28.9466 0.936413 28.3674 0.452278 27.8061 0.665999L1.32782 10.7218C0.674396 10.9699 0.680089 11.8807 1.33538 12.1224ZM9.88193 13.2311L22.4911 5.58572C22.7177 5.44873 22.9509 5.75038 22.7563 5.92808L12.35 15.4509C11.9843 15.7861 11.7483 16.2347 11.6815 16.7216L11.327 19.3077C11.2801 19.653 10.7874 19.6873 10.6906 19.3531L9.32725 14.6372C9.1711 14.0993 9.39865 13.5247 9.88193 13.2311Z" fill="white"/>
</svg>
