<svg width="217" height="303" viewBox="0 0 217 303" fill="none" xmlns="http://www.w3.org/2000/svg">
<path d="M-2.02273e-05 71.6267L-3.16634e-06 266.781C-1.42055e-06 286.751 16.2492 303 36.2187 303L179.98 303C199.949 303 216.198 286.751 216.198 266.781L216.198 71.6266C216.198 51.6572 199.949 35.408 179.98 35.408L144.213 35.408L108.571 0.35961L72.0359 35.408L36.2187 35.408C16.2492 35.408 -2.19731e-05 51.6572 -2.02273e-05 71.6267ZM212.241 266.781C212.241 284.568 197.767 299.042 179.98 299.042L36.2187 299.042C18.4316 299.042 3.95771 284.568 3.95771 266.781L3.95769 71.6267C3.95769 53.8396 18.4316 39.3657 36.2187 39.3657L73.6303 39.3657L108.537 5.8778L142.596 39.3657L179.98 39.3657C197.767 39.3657 212.241 53.8396 212.241 71.6266L212.241 266.781Z" fill="#16ACE0"/>
</svg>
