<svg width="217" height="303" viewBox="0 0 217 303" fill="none" xmlns="http://www.w3.org/2000/svg">
<path d="M0 231.373V36.2187C0 16.2492 16.2492 0 36.2187 0H179.98C199.949 0 216.198 16.2492 216.198 36.2187V231.373C216.198 251.343 199.949 267.592 179.98 267.592H144.213L108.571 302.64L72.036 267.592H36.2187C16.2492 267.592 0 251.343 0 231.373ZM212.241 36.2187C212.241 18.4316 197.767 3.95771 179.98 3.95771H36.2187C18.4316 3.95771 3.95771 18.4316 3.95771 36.2187V231.373C3.95771 249.16 18.4316 263.634 36.2187 263.634H73.6304L108.537 297.122L142.596 263.634H179.98C197.767 263.634 212.241 249.16 212.241 231.373V36.2187Z" fill="#16ACE0"/>
</svg>
