<svg width="252" height="268" viewBox="0 0 252 268" fill="none" xmlns="http://www.w3.org/2000/svg">
<path d="M179.946 0.38536L36.2187 0.385373C16.2492 0.385375 -2.19751e-05 16.6346 -2.02293e-05 36.604L-3.16634e-06 231.781C-1.42055e-06 251.751 16.2492 268 36.2187 268L179.946 268C199.915 268 216.164 251.751 216.164 231.781L216.164 170.29L251.213 134.648L216.164 98.1125L216.164 36.604C216.164 16.6345 199.915 0.385358 179.946 0.38536ZM36.2187 264.042C18.4316 264.042 3.95771 249.568 3.95771 231.781L3.95769 36.604C3.95769 18.8169 18.4316 4.34308 36.2187 4.34308L179.946 4.34306C197.733 4.34306 212.207 18.8169 212.207 36.604L212.207 99.7069L245.695 134.614L212.207 168.673L212.207 231.781C212.207 249.568 197.733 264.042 179.946 264.042L36.2187 264.042Z" fill="#16ACE0"/>
</svg>
