<svg width="252" height="268" viewBox="0 0 252 268" fill="none" xmlns="http://www.w3.org/2000/svg">
<path d="M179.946 267.615H36.2187C16.2492 267.615 0 251.365 0 231.396V36.2187C0 16.2492 16.2492 0 36.2187 0H179.946C199.915 0 216.164 16.2492 216.164 36.2187V97.7102L251.213 133.352L216.164 169.887V231.396C216.164 251.365 199.915 267.615 179.946 267.615ZM36.2187 3.95771C18.4316 3.95771 3.95771 18.4316 3.95771 36.2187V231.396C3.95771 249.183 18.4316 263.657 36.2187 263.657H179.946C197.733 263.657 212.207 249.183 212.207 231.396V168.293L245.695 133.386L212.207 99.3272V36.2187C212.207 18.4316 197.733 3.95771 179.946 3.95771H36.2187Z" fill="#16ACE0"/>
</svg>
