

<svg width="217" height="268" viewBox="0 0 217 268" fill="none" xmlns="http://www.w3.org/2000/svg">
<path d="M179.946 0.000106339L36.2187 0.000118904C16.2492 0.00012065 -2.19751e-05 16.2493 -2.02293e-05 36.2188L-3.16634e-06 231.396C-1.42055e-06 251.366 16.2492 267.615 36.2187 267.615L179.946 267.615C199.915 267.615 216.164 251.366 216.164 231.396L216.164 169.905L216.164 134.263L216.164 115.995L216.164 97.7272L216.164 36.2187C216.164 16.2493 199.915 0.000104593 179.946 0.000106339ZM36.2187 263.657C18.4316 263.657 3.95771 249.183 3.95771 231.396L3.95769 36.2188C3.95769 18.4317 18.4316 3.95782 36.2187 3.95782L179.946 3.95781C197.733 3.95781 212.207 18.4317 212.207 36.2187L212.207 99.3216L212.207 134.229L212.207 168.288L212.207 231.396C212.207 249.183 197.733 263.657 179.946 263.657L36.2187 263.657Z" fill="#16ACE0"/>
</svg>
